<svg xmlns="http://www.w3.org/2000/svg" width="1200" height="1200" viewBox="0 0 1200 1200" role="img" aria-label="Placeholder image">
  <rect width="1200" height="1200" fill="#EAEAEA" rx="3"/>
  <circle cx="600" cy="600" r="136" fill="#FAFAFA" stroke="#C9C9C9" stroke-width="2.4"/>
  <rect x="420" y="420" width="360" height="360" rx="24" fill="#FFFFFF" stroke="#C9C9C9" stroke-width="2.4"/>
  <path fill="#666666" d="M704 540H496v106l24-24h60l56-56h18l50 50V540Zm-104 96 24 24 9 9-18 18-9-9-34-34h-40l-36 36v18c0 9 7 16 16 16h176c9 0 16-7 16-16v-54l-56-56-44 44Z"/>
</svg>
